<svg width="64" height="64" viewBox="0 0 64 64" fill="none" xmlns="http://www.w3.org/2000/svg">
<path d="M29 18.5318C24.3437 18.5318 20.0042 19.9406 16.4116 22.3423C16.4116 22.3423 16.4116 6.26025 16.4116 5.5983C16.4116 2.50636 14.256 0 11.1669 0C8.07497 0 6.27016 2.50636 6.27016 5.5983V41.2645C6.27016 53.819 16.4455 64 29 64C41.546 64 51.7327 53.819 51.7327 41.2645C51.7298 28.7129 41.546 18.5318 29 18.5318ZM29 53.8557C22.0467 53.8557 16.4116 48.2178 16.4116 41.2645C16.4116 34.3112 22.0467 28.6761 29 28.6761C35.9562 28.6761 41.5912 34.3112 41.5912 41.2645C41.5912 48.2178 35.9562 53.8557 29 53.8557Z" fill="#CEEDDB"/>
<path d="M32 18.5318C27.3437 18.5318 23.0042 19.9406 19.4116 22.3423C19.4116 22.3423 19.4116 6.26025 19.4116 5.5983C19.4116 2.50636 17.256 0 14.1669 0C11.075 0 9.27016 2.50636 9.27016 5.5983V41.2645C9.27016 53.819 19.4455 64 32 64C44.546 64 54.7327 53.819 54.7327 41.2645C54.7298 28.7129 44.546 18.5318 32 18.5318ZM32 53.8557C25.0467 53.8557 19.4116 48.2178 19.4116 41.2645C19.4116 34.3112 25.0467 28.6761 32 28.6761C38.9562 28.6761 44.5912 34.3112 44.5912 41.2645C44.5912 48.2178 38.9562 53.8557 32 53.8557Z" fill="#77E2A3" fill-opacity="0.66"/>
</svg>
