<svg width="30" height="30" viewBox="0 0 30 30" fill="none" xmlns="http://www.w3.org/2000/svg">
<g clip-path="url(#clip0)">
<path d="M12.5092 20.4206L8.48736 21.5173L9.58461 17.4955L25.0071 2.073H0V29.9954H27.9224V5.00795L12.5092 20.4206Z" fill="#EDEADA"/>
<path d="M9.67774 20.3269C9.87992 20.5291 9.87992 20.8559 9.67774 21.0581L9.49263 21.2432L12.4881 20.4262L9.57846 17.5166L8.76147 20.5115L8.94659 20.3264C9.14877 20.1248 9.47608 20.1248 9.67774 20.3269Z" fill="#F7E6A1"/>
<path d="M9.49251 21.2433L9.67763 21.0582C9.8798 20.856 9.8798 20.5292 9.67763 20.327C9.47545 20.1249 9.14865 20.1249 8.94647 20.327L8.76136 20.5122L8.4873 21.5174L9.49251 21.2433Z" fill="#424A60"/>
<path d="M26.4031 6.52657L23.4785 3.60144L9.58457 17.4954L9.57837 17.5166L12.488 20.4262L12.5092 20.4205L26.4031 6.52657Z" fill="#EBBA16"/>
<path d="M29.6996 1.77875L28.2259 0.30507C27.8252 -0.0956678 27.1752 -0.0956678 26.7745 0.30507L24.9409 2.13864L27.866 5.06377L29.6996 3.2302C30.1004 2.82946 30.1004 2.17949 29.6996 1.77875Z" fill="#ED7161"/>
<path d="M27.8658 5.06357L24.9408 2.13855L23.4783 3.60106L26.4033 6.52608L27.8658 5.06357Z" fill="#F7E6A1"/>
</g>
<defs>
<clipPath id="clip0">
<rect width="30" height="30" fill="white"/>
</clipPath>
</defs>
</svg>
